<svg width="20" height="20" viewBox="0 0 20 20" fill="none" xmlns="http://www.w3.org/2000/svg">
<g id="Air">
<path id="Vector" d="M9.58317 16.6667C8.88873 16.6667 8.29845 16.4236 7.81234 15.9375C7.32623 15.4514 7.08317 14.8611 7.08317 14.1667H8.74984C8.74984 14.4028 8.82984 14.6006 8.98984 14.76C9.14928 14.92 9.34706 15 9.58317 15C9.81928 15 10.0173 14.92 10.1773 14.76C10.3368 14.6006 10.4165 14.4028 10.4165 14.1667C10.4165 13.9306 10.3368 13.7328 10.1773 13.5733C10.0173 13.4133 9.81928 13.3333 9.58317 13.3333H1.6665V11.6667H9.58317C10.2776 11.6667 10.8679 11.9097 11.354 12.3958C11.8401 12.8819 12.0832 13.4722 12.0832 14.1667C12.0832 14.8611 11.8401 15.4514 11.354 15.9375C10.8679 16.4236 10.2776 16.6667 9.58317 16.6667ZM1.6665 8.33333V6.66667H12.9165C13.2776 6.66667 13.5762 6.54861 13.8123 6.3125C14.0484 6.07639 14.1665 5.77778 14.1665 5.41667C14.1665 5.05556 14.0484 4.75694 13.8123 4.52083C13.5762 4.28472 13.2776 4.16667 12.9165 4.16667C12.5554 4.16667 12.2568 4.28472 12.0207 4.52083C11.7846 4.75694 11.6665 5.05556 11.6665 5.41667H9.99984C9.99984 4.59722 10.2809 3.90611 10.8432 3.34333C11.4059 2.78111 12.0971 2.5 12.9165 2.5C13.7359 2.5 14.4271 2.78111 14.9898 3.34333C15.5521 3.90611 15.8332 4.59722 15.8332 5.41667C15.8332 6.23611 15.5521 6.92695 14.9898 7.48917C14.4271 8.05195 13.7359 8.33333 12.9165 8.33333H1.6665ZM15.4165 15V13.3333C15.7776 13.3333 16.0762 13.2153 16.3123 12.9792C16.5484 12.7431 16.6665 12.4444 16.6665 12.0833C16.6665 11.7222 16.5484 11.4236 16.3123 11.1875C16.0762 10.9514 15.7776 10.8333 15.4165 10.8333H1.6665V9.16667H15.4165C16.2359 9.16667 16.9271 9.44778 17.4898 10.01C18.0521 10.5728 18.3332 11.2639 18.3332 12.0833C18.3332 12.9028 18.0521 13.5939 17.4898 14.1567C16.9271 14.7189 16.2359 15 15.4165 15Z" fill="#222222"/>
</g>
</svg>
