<svg width="20" height="20" viewBox="0 0 20 20" fill="none" xmlns="http://www.w3.org/2000/svg">
<g id="Bed" clip-path="url(#clip0_53_21950)">
<g id="Group">
<path id="Vector" d="M17.4998 8.98332V6.66666C17.4998 5.29166 16.3748 4.16666 14.9998 4.16666H11.6665C11.0248 4.16666 10.4415 4.41666 9.99984 4.81666C9.55817 4.41666 8.97484 4.16666 8.33317 4.16666H4.99984C3.62484 4.16666 2.49984 5.29166 2.49984 6.66666V8.98332C1.9915 9.44166 1.6665 10.1 1.6665 10.8333V15.8333H3.33317V14.1667H16.6665V15.8333H18.3332V10.8333C18.3332 10.1 18.0082 9.44166 17.4998 8.98332ZM11.6665 5.83332H14.9998C15.4582 5.83332 15.8332 6.20832 15.8332 6.66666V8.33332H10.8332V6.66666C10.8332 6.20832 11.2082 5.83332 11.6665 5.83332ZM4.1665 6.66666C4.1665 6.20832 4.5415 5.83332 4.99984 5.83332H8.33317C8.7915 5.83332 9.1665 6.20832 9.1665 6.66666V8.33332H4.1665V6.66666ZM3.33317 12.5V10.8333C3.33317 10.375 3.70817 9.99999 4.1665 9.99999H15.8332C16.2915 9.99999 16.6665 10.375 16.6665 10.8333V12.5H3.33317Z" fill="#222222"/>
</g>
</g>
<defs>
<clipPath id="clip0_53_21950">
<rect width="20" height="20" fill="white"/>
</clipPath>
</defs>
</svg>
