<svg width="35" height="35" viewBox="0 0 35 35" fill="none" xmlns="http://www.w3.org/2000/svg">
<g id="fluent:tent-16-regular">
<path id="Vector" d="M18.3859 2.95969C18.2833 2.8366 18.1548 2.73757 18.0097 2.66962C17.8645 2.60166 17.7062 2.56644 17.5459 2.56644C17.3856 2.56644 17.2273 2.60166 17.0822 2.66962C16.937 2.73757 16.8086 2.8366 16.7059 2.95969C14.4287 5.69407 9.9203 8.94907 7.32592 10.3972C7.17841 10.4798 7.05206 10.5955 6.95679 10.7352C6.86153 10.8748 6.79994 11.0347 6.77686 11.2022L4.70311 26.25H3.25061C2.96053 26.25 2.68233 26.3652 2.47721 26.5704C2.27209 26.7755 2.15686 27.0537 2.15686 27.3438C2.15686 27.6338 2.27209 27.912 2.47721 28.1172C2.68233 28.3223 2.96053 28.4375 3.25061 28.4375H31.7187C32.0088 28.4375 32.287 28.3223 32.4921 28.1172C32.6973 27.912 32.8125 27.6338 32.8125 27.3438C32.8125 27.0537 32.6973 26.7755 32.4921 26.5704C32.287 26.3652 32.0088 26.25 31.7187 26.25H30.3909L28.3172 11.2022C28.2939 11.0345 28.2319 10.8745 28.1363 10.7348C28.0406 10.5951 27.9138 10.4796 27.7659 10.3972C25.1737 8.94907 20.6653 5.69407 18.3859 2.95969ZM24.664 26.25C22.0894 22.6034 20.254 19.0422 18.5609 12.5409C18.4996 12.3065 18.3622 12.0991 18.1703 11.9512C17.9784 11.8033 17.7428 11.7234 17.5005 11.7239C17.2582 11.7244 17.0229 11.8053 16.8316 11.954C16.6403 12.1027 16.5037 12.3107 16.4434 12.5453C14.5709 19.8428 12.3594 23.4894 10.3206 26.25H6.91249L8.87249 12.0313C11.3444 10.5809 15.085 7.88157 17.5481 5.29813C20.0112 7.88157 23.754 10.5809 26.2259 12.0334L28.1815 26.25H24.664ZM22.015 26.25H13.0025C14.525 24.0034 16.0869 21.1356 17.5065 16.7519C18.7972 20.7222 20.2322 23.5506 22.0128 26.25" fill="black"/>
</g>
</svg>
