<svg width="35" height="35" viewBox="0 0 35 35" fill="none" xmlns="http://www.w3.org/2000/svg">
<g id="fluent:animal-dog-16-regular">
<path id="Vector" d="M20.781 4.375C20.4909 4.375 20.2127 4.49023 20.0076 4.69535C19.8025 4.90047 19.6873 5.17867 19.6873 5.46875V7.65625C19.6873 7.94633 19.8025 8.22453 20.0076 8.42965C20.2127 8.63477 20.4909 8.75 20.781 8.75C21.0711 8.75 21.3493 8.63477 21.5544 8.42965C21.7595 8.22453 21.8748 7.94633 21.8748 7.65625C21.8748 7.36617 21.99 7.08797 22.1951 6.88285C22.4002 6.67773 22.6784 6.5625 22.9685 6.5625C23.2586 6.5625 23.5368 6.67773 23.7419 6.88285C23.947 7.08797 24.0623 7.36617 24.0623 7.65625C24.0625 8.19718 23.929 8.72977 23.6737 9.20664C23.4183 9.6835 23.049 10.0898 22.5987 10.3895C22.1484 10.6891 21.6309 10.8728 21.0924 10.9242C20.5539 10.9755 20.0111 10.8929 19.5123 10.6837C19.3208 12.4156 18.8718 14.1092 18.1801 15.7084C17.281 17.7625 16.0998 19.2281 15.0345 20.4159C14.2732 21.2669 13.781 22.4875 13.4901 23.94C13.1991 25.3838 13.1248 26.9609 13.1248 28.4375C13.1248 29.1003 12.8841 29.9009 12.4466 30.625H21.6888C21.4612 29.9859 21.0416 29.4327 20.4875 29.0411C19.9335 28.6496 19.272 28.4387 18.5935 28.4375H17.4998C17.2097 28.4375 16.9315 28.3223 16.7264 28.1171C16.5212 27.912 16.406 27.6338 16.406 27.3438C16.406 27.0537 16.5212 26.7755 16.7264 26.5704C16.9315 26.3652 17.2097 26.25 17.4998 26.25H18.5935C18.9683 26.25 19.3329 26.2865 19.6873 26.3594V22.9688C19.6873 22.6787 19.8025 22.4005 20.0076 22.1954C20.2127 21.9902 20.4909 21.875 20.781 21.875C21.0711 21.875 21.3493 21.9902 21.5544 22.1954C21.7595 22.4005 21.8748 22.6787 21.8748 22.9688V27.3438C22.9248 28.1313 23.6816 29.2906 23.9529 30.625H28.2513C28.025 29.985 27.6058 29.4309 27.0515 29.0391C26.4971 28.6473 25.8349 28.4371 25.156 28.4375C24.8659 28.4375 24.5877 28.3223 24.3826 28.1171C24.1775 27.912 24.0623 27.6338 24.0623 27.3438V12.0312C24.0623 11.7412 24.1775 11.463 24.3826 11.2579C24.5877 11.0527 24.8659 10.9375 25.156 10.9375H27.3435C27.6336 10.9375 27.9118 10.8223 28.1169 10.6171C28.322 10.412 28.4373 10.1338 28.4373 9.84375V7.80062C28.4373 7.6116 28.3884 7.4258 28.2952 7.26133C28.202 7.09686 28.0678 6.95934 27.9057 6.86219L24.0185 4.53031C23.8486 4.42861 23.6543 4.37493 23.4563 4.375H20.781ZM8.74976 30.625C9.43664 30.625 9.96601 30.2925 10.3576 29.8047C10.7732 29.2819 10.9373 28.6956 10.9373 28.4375C10.9373 26.9062 11.0138 25.1628 11.3441 23.5091C11.6745 21.8684 12.2782 20.2169 13.4026 18.9591C14.4023 17.8434 15.4107 16.5747 16.1807 14.8269C16.9441 13.0834 17.4998 10.8019 17.4998 7.65625V5.46875C17.4998 4.59851 17.8455 3.76391 18.4608 3.14856C19.0762 2.5332 19.9108 2.1875 20.781 2.1875H23.4563C24.0513 2.18756 24.635 2.34937 25.1451 2.65562L29.0323 4.9875C29.518 5.27905 29.9199 5.69138 30.199 6.18435C30.478 6.67732 30.6247 7.23414 30.6248 7.80062V9.84375C30.6248 10.714 30.2791 11.5486 29.6637 12.1639C29.0484 12.7793 28.2138 13.125 27.3435 13.125H26.2498V26.3594C27.485 26.6115 28.5952 27.2827 29.3924 28.2593C30.1897 29.236 30.625 30.458 30.6248 31.7188C30.6248 32.0088 30.5095 32.287 30.3044 32.4921C30.0993 32.6973 29.8211 32.8125 29.531 32.8125H8.20289C6.91201 32.8129 5.65524 32.3981 4.61827 31.6292C3.5813 30.8604 2.81914 29.7785 2.44441 28.5432C2.06968 27.3079 2.10225 25.9848 2.53731 24.7694C2.97237 23.5541 3.78685 22.5109 4.86039 21.7941C4.97967 21.7112 5.11426 21.6529 5.25631 21.6227C5.39835 21.5924 5.54501 21.5907 5.68771 21.6177C5.83041 21.6447 5.96631 21.6999 6.08746 21.78C6.20862 21.86 6.31262 21.9635 6.39338 22.0842C6.47414 22.2049 6.53006 22.3405 6.55786 22.483C6.58566 22.6256 6.5848 22.7722 6.55531 22.9144C6.52583 23.0566 6.46831 23.1916 6.38613 23.3113C6.30395 23.431 6.19874 23.5332 6.07664 23.6119C5.39291 24.0678 4.87404 24.7316 4.59675 25.5052C4.31947 26.2788 4.2985 27.1211 4.53693 27.9076C4.77537 28.694 5.26055 29.3829 5.92075 29.8722C6.58094 30.3616 7.3811 30.6255 8.20289 30.625H8.74976Z" fill="black"/>
</g>
</svg>
