<svg width="35" height="35" viewBox="0 0 35 35" fill="none" xmlns="http://www.w3.org/2000/svg">
<g id="fluent-mdl2:vacation" clip-path="url(#clip0_36_17621)">
<path id="Vector" d="M29.5312 28.4375C29.8275 28.4375 30.0838 28.5457 30.3003 28.7622C30.5168 28.9787 30.625 29.235 30.625 29.5312C30.625 29.8275 30.5168 30.0838 30.3003 30.3003C30.0838 30.5168 29.8275 30.625 29.5312 30.625H16.4062C16.11 30.625 15.8537 30.5168 15.6372 30.3003C15.4207 30.0838 15.3125 29.8275 15.3125 29.5312C15.3125 29.235 15.4207 28.9787 15.6372 28.7622C15.8537 28.5457 16.11 28.4375 16.4062 28.4375H29.5312ZM27.3438 32.8125C27.64 32.8125 27.8963 32.9207 28.1128 33.1372C28.3293 33.3537 28.4375 33.61 28.4375 33.9062C28.4375 34.2025 28.3293 34.4588 28.1128 34.6753C27.8963 34.8918 27.64 35 27.3438 35H18.5938C18.2975 35 18.0412 34.8918 17.8247 34.6753C17.6082 34.4588 17.5 34.2025 17.5 33.9062C17.5 33.61 17.6082 33.3537 17.8247 33.1372C18.0412 32.9207 18.2975 32.8125 18.5938 32.8125H27.3438ZM31.4111 24.0625H35V26.25H9.17725C9.06331 26.9792 8.98356 27.7083 8.93799 28.4375C8.89242 29.1667 8.85254 29.8901 8.81836 30.6079C8.78418 31.3257 8.76709 32.0549 8.76709 32.7954C8.76709 33.536 8.76139 34.2708 8.75 35H2.1875V31.7017C2.1875 30.7788 2.22168 29.8673 2.29004 28.9673C2.3584 28.0672 2.45524 27.1615 2.58057 26.25H0V24.0625H2.93945C3.50911 21.2712 4.3693 18.5881 5.52002 16.0132C6.67074 13.4383 8.09489 11.0059 9.79248 8.71582C8.12907 8.65885 6.60238 8.31136 5.2124 7.67334C3.82243 7.03532 2.55208 6.12386 1.40137 4.93896L0.632324 4.15283L1.43555 3.40088C2.62044 2.29574 3.91927 1.45833 5.33203 0.888672C6.74479 0.31901 8.26579 0.0284831 9.89502 0.0170898C11.6724 0.0170898 13.3016 0.347493 14.7827 1.0083C16.2638 1.66911 17.6253 2.62614 18.8672 3.87939C19.7445 3.90218 20.5933 4.0389 21.4136 4.28955C22.2339 4.5402 22.9972 4.882 23.7036 5.31494C24.41 5.74788 25.0537 6.26058 25.6348 6.85303C26.2158 7.44548 26.7114 8.10059 27.1216 8.81836C27.5317 9.53613 27.8564 10.3052 28.0957 11.1255C28.335 11.9458 28.4489 12.8003 28.4375 13.689V14.7827H27.3438C25.8398 14.7827 24.4328 14.4637 23.1226 13.8257C21.8123 13.1877 20.6787 12.2819 19.7217 11.1084C18.8558 12.6807 17.7677 13.9738 16.4575 14.9878C15.1473 16.0018 13.6149 16.7139 11.8604 17.124C11.3704 18.252 10.9375 19.3913 10.5615 20.542C10.1855 21.6927 9.86084 22.8662 9.5874 24.0625H14.5264C14.777 23.1055 15.1701 22.2282 15.7056 21.4307C16.241 20.6331 16.8791 19.9382 17.6196 19.3457C18.3602 18.7533 19.1919 18.3032 20.1147 17.9956C21.0376 17.688 21.9889 17.5228 22.9688 17.5C23.96 17.5 24.9113 17.6595 25.8228 17.9785C26.7342 18.2975 27.5602 18.7533 28.3008 19.3457C29.0413 19.9382 29.6851 20.6274 30.2319 21.4136C30.7788 22.1997 31.1719 23.0827 31.4111 24.0625ZM21.1572 6.49414C21.0889 7.2347 20.9408 7.98665 20.7129 8.75C21.2939 9.7526 22.0573 10.5843 23.0029 11.2451C23.9486 11.9059 25.0024 12.3275 26.1646 12.5098C26.0506 11.8148 25.8512 11.1597 25.5664 10.5444C25.2816 9.9292 24.9227 9.35384 24.4897 8.81836C24.0568 8.28288 23.5555 7.82715 22.9858 7.45117C22.4162 7.0752 21.8066 6.75619 21.1572 6.49414ZM19.0039 6.61377C17.8418 6.70492 16.748 6.98975 15.7227 7.46826C14.6973 7.94678 13.7801 8.57341 12.9712 9.34814C12.1623 10.1229 11.4958 11.0173 10.9717 12.0312C10.4476 13.0452 10.1001 14.1219 9.9292 15.2612C10.8976 15.1815 11.8148 14.9764 12.6807 14.646C13.5465 14.3156 14.3384 13.8713 15.0562 13.313C15.7739 12.7547 16.4119 12.1167 16.9702 11.3989C17.5285 10.6812 17.9899 9.86084 18.3545 8.93799C18.514 8.56201 18.645 8.18034 18.7476 7.79297C18.8501 7.4056 18.9355 7.01253 19.0039 6.61377ZM3.82812 4.22119C4.73958 4.97314 5.74788 5.5485 6.85303 5.94727C7.95817 6.34603 9.10319 6.54541 10.2881 6.54541C11.3932 6.54541 12.4585 6.37451 13.4839 6.03271C14.5093 5.69092 15.4663 5.18962 16.355 4.52881C15.4435 3.77686 14.4352 3.2015 13.3301 2.80273C12.2249 2.40397 11.0799 2.20459 9.89502 2.20459C8.78988 2.20459 7.72461 2.37549 6.69922 2.71729C5.67383 3.05908 4.7168 3.56038 3.82812 4.22119ZM9.2627 17.4658C9.17155 17.4886 9.0804 17.5 8.98926 17.5C8.89811 17.5 8.80697 17.5 8.71582 17.5H8.16895C7.98665 17.5 7.80436 17.4886 7.62207 17.4658V16.6626C7.01823 18.007 6.51123 19.3286 6.10107 20.6274C5.69092 21.9263 5.35482 23.2365 5.09277 24.5581C4.83073 25.8797 4.64844 27.2184 4.5459 28.5742C4.44336 29.93 4.38639 31.3428 4.375 32.8125H6.5625C6.5625 31.4339 6.60807 30.1009 6.69922 28.8135C6.79036 27.526 6.94417 26.2557 7.16064 25.0024C7.37712 23.7492 7.65625 22.5016 7.99805 21.2598C8.33984 20.0179 8.76139 18.7533 9.2627 17.4658ZM16.8164 24.0625H29.1211C28.8932 23.4131 28.5742 22.8206 28.1641 22.2852C27.7539 21.7497 27.2811 21.2882 26.7456 20.9009C26.2101 20.5135 25.6177 20.2173 24.9683 20.0122C24.3188 19.8071 23.6523 19.6989 22.9688 19.6875C22.2738 19.6875 21.6073 19.79 20.9692 19.9951C20.3312 20.2002 19.7445 20.4964 19.209 20.8838C18.6735 21.2712 18.195 21.7326 17.7734 22.2681C17.3519 22.8035 17.0329 23.4017 16.8164 24.0625Z" fill="black"/>
</g>
<defs>
<clipPath id="clip0_36_17621">
<rect width="35" height="35" fill="white"/>
</clipPath>
</defs>
</svg>
