<svg width="35" height="35" viewBox="0 0 35 35" fill="none" xmlns="http://www.w3.org/2000/svg">
<g id="fluent:building-home-16-regular">
<path id="Vector" d="M7.11375 4.375C6.96871 4.375 6.82961 4.43262 6.72705 4.53518C6.62449 4.63774 6.56688 4.77683 6.56688 4.92188L6.5625 23.5156C6.5625 23.8175 6.8075 24.0625 7.10938 24.0625H10.9375V26.25H7.10938C5.6 26.25 4.375 25.025 4.375 23.5156L4.37938 4.92188C4.37938 3.4125 5.60438 2.1875 7.11375 2.1875H16.9641C18.4734 2.1875 19.6984 3.4125 19.6984 4.92406L19.6941 9.29688C19.6941 9.59875 19.9369 9.84375 20.2409 9.84375H21.3281C22.0344 9.84316 22.7135 10.1159 23.2232 10.6048C23.7329 11.0937 24.0337 11.7609 24.0625 12.4666C23.5644 12.1792 23.0146 11.9928 22.4444 11.9181C21.8743 11.8434 21.295 11.8819 20.7397 12.0312H20.2409C19.8817 12.0312 19.5259 11.9605 19.194 11.8229C18.8621 11.6853 18.5606 11.4837 18.3067 11.2296C18.0527 10.9755 17.8514 10.6738 17.7141 10.3418C17.5768 10.0098 17.5063 9.65395 17.5066 9.29469L17.5109 4.92188C17.5109 4.77683 17.4533 4.63774 17.3508 4.53518C17.2482 4.43262 17.1091 4.375 16.9641 4.375H7.11375ZM23.3647 14.6562C22.9601 14.2805 22.4283 14.0716 21.8761 14.0716C21.3239 14.0716 20.7921 14.2805 20.3875 14.6562L14.175 20.4247C13.8438 20.7319 13.5795 21.1042 13.3989 21.5182C13.2182 21.9323 13.1249 22.3792 13.125 22.8309V30.625C13.125 31.2052 13.3555 31.7616 13.7657 32.1718C14.1759 32.582 14.7323 32.8125 15.3125 32.8125H18.5938C19.1739 32.8125 19.7303 32.582 20.1405 32.1718C20.5508 31.7616 20.7812 31.2052 20.7812 30.625V28.4375H22.9688V30.625C22.9688 31.2052 23.1992 31.7616 23.6095 32.1718C24.0197 32.582 24.5761 32.8125 25.1562 32.8125H28.4375C29.0177 32.8125 29.5741 32.582 29.9843 32.1718C30.3945 31.7616 30.625 31.2052 30.625 30.625V22.8288C30.6251 22.377 30.5318 21.9301 30.3511 21.516C30.1705 21.102 29.9062 20.7297 29.575 20.4225L23.3647 14.6562ZM15.6625 22.0281L21.875 16.2575L28.0875 22.0281C28.1977 22.1304 28.2857 22.2542 28.3459 22.392C28.4061 22.5297 28.4373 22.6784 28.4375 22.8288V30.625H25.1562V28.4375C25.1562 27.8573 24.9258 27.3009 24.5155 26.8907C24.1053 26.4805 23.5489 26.25 22.9688 26.25H20.7812C20.2011 26.25 19.6447 26.4805 19.2345 26.8907C18.8242 27.3009 18.5938 27.8573 18.5938 28.4375V30.625H15.3125V22.8288C15.3127 22.6784 15.3439 22.5297 15.4041 22.392C15.4643 22.2542 15.5523 22.1304 15.6625 22.0281ZM10.9375 7.65625C10.9375 7.94633 10.8223 8.22453 10.6171 8.42965C10.412 8.63477 10.1338 8.75 9.84375 8.75C9.55367 8.75 9.27547 8.63477 9.07035 8.42965C8.86523 8.22453 8.75 7.94633 8.75 7.65625C8.75 7.36617 8.86523 7.08797 9.07035 6.88285C9.27547 6.67773 9.55367 6.5625 9.84375 6.5625C10.1338 6.5625 10.412 6.67773 10.6171 6.88285C10.8223 7.08797 10.9375 7.36617 10.9375 7.65625ZM9.84375 13.125C10.1338 13.125 10.412 13.0098 10.6171 12.8046C10.8223 12.5995 10.9375 12.3213 10.9375 12.0312C10.9375 11.7412 10.8223 11.463 10.6171 11.2579C10.412 11.0527 10.1338 10.9375 9.84375 10.9375C9.55367 10.9375 9.27547 11.0527 9.07035 11.2579C8.86523 11.463 8.75 11.7412 8.75 12.0312C8.75 12.3213 8.86523 12.5995 9.07035 12.8046C9.27547 13.0098 9.55367 13.125 9.84375 13.125ZM10.9375 16.4062C10.9375 16.6963 10.8223 16.9745 10.6171 17.1796C10.412 17.3848 10.1338 17.5 9.84375 17.5C9.55367 17.5 9.27547 17.3848 9.07035 17.1796C8.86523 16.9745 8.75 16.6963 8.75 16.4062C8.75 16.1162 8.86523 15.838 9.07035 15.6329C9.27547 15.4277 9.55367 15.3125 9.84375 15.3125C10.1338 15.3125 10.412 15.4277 10.6171 15.6329C10.8223 15.838 10.9375 16.1162 10.9375 16.4062ZM14.2188 8.75C14.5088 8.75 14.787 8.63477 14.9921 8.42965C15.1973 8.22453 15.3125 7.94633 15.3125 7.65625C15.3125 7.36617 15.1973 7.08797 14.9921 6.88285C14.787 6.67773 14.5088 6.5625 14.2188 6.5625C13.9287 6.5625 13.6505 6.67773 13.4454 6.88285C13.2402 7.08797 13.125 7.36617 13.125 7.65625C13.125 7.94633 13.2402 8.22453 13.4454 8.42965C13.6505 8.63477 13.9287 8.75 14.2188 8.75ZM15.3125 12.0312C15.3125 12.3213 15.1973 12.5995 14.9921 12.8046C14.787 13.0098 14.5088 13.125 14.2188 13.125C13.9287 13.125 13.6505 13.0098 13.4454 12.8046C13.2402 12.5995 13.125 12.3213 13.125 12.0312C13.125 11.7412 13.2402 11.463 13.4454 11.2579C13.6505 11.0527 13.9287 10.9375 14.2188 10.9375C14.5088 10.9375 14.787 11.0527 14.9921 11.2579C15.1973 11.463 15.3125 11.7412 15.3125 12.0312ZM14.2188 17.5C14.5088 17.5 14.787 17.3848 14.9921 17.1796C15.1973 16.9745 15.3125 16.6963 15.3125 16.4062C15.3125 16.1162 15.1973 15.838 14.9921 15.6329C14.787 15.4277 14.5088 15.3125 14.2188 15.3125C13.9287 15.3125 13.6505 15.4277 13.4454 15.6329C13.2402 15.838 13.125 16.1162 13.125 16.4062C13.125 16.6963 13.2402 16.9745 13.4454 17.1796C13.6505 17.3848 13.9287 17.5 14.2188 17.5Z" fill="black"/>
</g>
</svg>
