<svg width="35" height="35" viewBox="0 0 35 35" fill="none" xmlns="http://www.w3.org/2000/svg">
<g id="fluent:bed-16-regular">
<path id="Vector" d="M6.5625 9.84375C6.5625 8.39335 7.13867 7.00235 8.16426 5.97676C9.18985 4.95117 10.5808 4.375 12.0312 4.375H22.9688C24.4192 4.375 25.8102 4.95117 26.8357 5.97676C27.8613 7.00235 28.4375 8.39335 28.4375 9.84375V13.2344C29.6727 13.4865 30.7829 14.1577 31.5802 15.1343C32.3774 16.111 32.8128 17.333 32.8125 18.5938V29.5312C32.8125 29.8213 32.6973 30.0995 32.4921 30.3046C32.287 30.5098 32.0088 30.625 31.7188 30.625C31.4287 30.625 31.1505 30.5098 30.9454 30.3046C30.7402 30.0995 30.625 29.8213 30.625 29.5312V24.0625H4.375V29.5312C4.375 29.8213 4.25977 30.0995 4.05465 30.3046C3.84953 30.5098 3.57133 30.625 3.28125 30.625C2.99117 30.625 2.71297 30.5098 2.50785 30.3046C2.30273 30.0995 2.1875 29.8213 2.1875 29.5312V18.5938C2.18724 17.333 2.62258 16.111 3.41982 15.1343C4.21707 14.1577 5.32726 13.4865 6.5625 13.2344V9.84375ZM4.375 21.875H30.625V18.5938C30.625 17.7235 30.2793 16.8889 29.6639 16.2736C29.0486 15.6582 28.214 15.3125 27.3438 15.3125H7.65625C6.78601 15.3125 5.95141 15.6582 5.33606 16.2736C4.7207 16.8889 4.375 17.7235 4.375 18.5938V21.875ZM26.25 9.84375C26.25 8.97351 25.9043 8.13891 25.2889 7.52356C24.6736 6.9082 23.839 6.5625 22.9688 6.5625H12.0312C11.161 6.5625 10.3264 6.9082 9.71106 7.52356C9.0957 8.13891 8.75 8.97351 8.75 9.84375V13.125H10.9375V12.0312C10.9375 11.7412 11.0527 11.463 11.2579 11.2579C11.463 11.0527 11.7412 10.9375 12.0312 10.9375H15.3125C15.6026 10.9375 15.8808 11.0527 16.0859 11.2579C16.291 11.463 16.4062 11.7412 16.4062 12.0312V13.125H18.5938V12.0312C18.5938 11.7412 18.709 11.463 18.9141 11.2579C19.1192 11.0527 19.3974 10.9375 19.6875 10.9375H22.9688C23.2588 10.9375 23.537 11.0527 23.7421 11.2579C23.9473 11.463 24.0625 11.7412 24.0625 12.0312V13.125H26.25V9.84375Z" fill="black"/>
</g>
</svg>
