<svg width="35" height="36" viewBox="0 0 35 36" fill="none" xmlns="http://www.w3.org/2000/svg">
<g id="fluent:building-16-regular">
<path id="Vector" d="M14.2188 11.4375C14.5088 11.4375 14.787 11.3223 14.9921 11.1171C15.1973 10.912 15.3125 10.6338 15.3125 10.3438C15.3125 10.0537 15.1973 9.77547 14.9921 9.57035C14.787 9.36523 14.5088 9.25 14.2188 9.25C13.9287 9.25 13.6505 9.36523 13.4454 9.57035C13.2402 9.77547 13.125 10.0537 13.125 10.3438C13.125 10.6338 13.2402 10.912 13.4454 11.1171C13.6505 11.3223 13.9287 11.4375 14.2188 11.4375ZM15.3125 15.8125C15.3125 16.1026 15.1973 16.3808 14.9921 16.5859C14.787 16.791 14.5088 16.9062 14.2188 16.9062C13.9287 16.9062 13.6505 16.791 13.4454 16.5859C13.2402 16.3808 13.125 16.1026 13.125 15.8125C13.125 15.5224 13.2402 15.2442 13.4454 15.0391C13.6505 14.834 13.9287 14.7188 14.2188 14.7188C14.5088 14.7188 14.787 14.834 14.9921 15.0391C15.1973 15.2442 15.3125 15.5224 15.3125 15.8125ZM14.2188 22.375C14.5088 22.375 14.787 22.2598 14.9921 22.0546C15.1973 21.8495 15.3125 21.5713 15.3125 21.2812C15.3125 20.9912 15.1973 20.713 14.9921 20.5079C14.787 20.3027 14.5088 20.1875 14.2188 20.1875C13.9287 20.1875 13.6505 20.3027 13.4454 20.5079C13.2402 20.713 13.125 20.9912 13.125 21.2812C13.125 21.5713 13.2402 21.8495 13.4454 22.0546C13.6505 22.2598 13.9287 22.375 14.2188 22.375ZM19.6875 10.3438C19.6875 10.6338 19.5723 10.912 19.3671 11.1171C19.162 11.3223 18.8838 11.4375 18.5938 11.4375C18.3037 11.4375 18.0255 11.3223 17.8204 11.1171C17.6152 10.912 17.5 10.6338 17.5 10.3438C17.5 10.0537 17.6152 9.77547 17.8204 9.57035C18.0255 9.36523 18.3037 9.25 18.5938 9.25C18.8838 9.25 19.162 9.36523 19.3671 9.57035C19.5723 9.77547 19.6875 10.0537 19.6875 10.3438ZM18.5938 16.9062C18.8838 16.9062 19.162 16.791 19.3671 16.5859C19.5723 16.3808 19.6875 16.1026 19.6875 15.8125C19.6875 15.5224 19.5723 15.2442 19.3671 15.0391C19.162 14.834 18.8838 14.7188 18.5938 14.7188C18.3037 14.7188 18.0255 14.834 17.8204 15.0391C17.6152 15.2442 17.5 15.5224 17.5 15.8125C17.5 16.1026 17.6152 16.3808 17.8204 16.5859C18.0255 16.791 18.3037 16.9062 18.5938 16.9062ZM19.6875 21.2812C19.6875 21.5713 19.5723 21.8495 19.3671 22.0546C19.162 22.2598 18.8838 22.375 18.5938 22.375C18.3037 22.375 18.0255 22.2598 17.8204 22.0546C17.6152 21.8495 17.5 21.5713 17.5 21.2812C17.5 20.9912 17.6152 20.713 17.8204 20.5079C18.0255 20.3027 18.3037 20.1875 18.5938 20.1875C18.8838 20.1875 19.162 20.3027 19.3671 20.5079C19.5723 20.713 19.6875 20.9912 19.6875 21.2812ZM22.9688 22.375C23.2588 22.375 23.537 22.2598 23.7421 22.0546C23.9473 21.8495 24.0625 21.5713 24.0625 21.2812C24.0625 20.9912 23.9473 20.713 23.7421 20.5079C23.537 20.3027 23.2588 20.1875 22.9688 20.1875C22.6787 20.1875 22.4005 20.3027 22.1954 20.5079C21.9902 20.713 21.875 20.9912 21.875 21.2812C21.875 21.5713 21.9902 21.8495 22.1954 22.0546C22.4005 22.2598 22.6787 22.375 22.9688 22.375ZM12.0312 4.875C11.161 4.875 10.3264 5.2207 9.71106 5.83606C9.0957 6.45141 8.75 7.28601 8.75 8.15625V30.0312C8.75 30.3213 8.86523 30.5995 9.07035 30.8046C9.27547 31.0098 9.55367 31.125 9.84375 31.125H27.3438C27.6338 31.125 27.912 31.0098 28.1171 30.8046C28.3223 30.5995 28.4375 30.3213 28.4375 30.0312V19.0938C28.4375 18.2235 28.0918 17.3889 27.4764 16.7736C26.8611 16.1582 26.0265 15.8125 25.1562 15.8125H24.0625V8.15625C24.0625 7.28601 23.7168 6.45141 23.1014 5.83606C22.4861 5.2207 21.6515 4.875 20.7812 4.875H12.0312ZM10.9375 8.15625C10.9375 7.86617 11.0527 7.58797 11.2579 7.38285C11.463 7.17773 11.7412 7.0625 12.0312 7.0625H20.7812C21.0713 7.0625 21.3495 7.17773 21.5546 7.38285C21.7598 7.58797 21.875 7.86617 21.875 8.15625V16.9062C21.875 17.1963 21.9902 17.4745 22.1954 17.6796C22.4005 17.8848 22.6787 18 22.9688 18H25.1562C25.4463 18 25.7245 18.1152 25.9296 18.3204C26.1348 18.5255 26.25 18.8037 26.25 19.0938V28.9375H24.0625V25.6562C24.0625 25.3662 23.9473 25.088 23.7421 24.8829C23.537 24.6777 23.2588 24.5625 22.9688 24.5625H14.2188C13.9287 24.5625 13.6505 24.6777 13.4454 24.8829C13.2402 25.088 13.125 25.3662 13.125 25.6562V28.9375H10.9375V8.15625ZM21.875 26.75V28.9375H19.6941V26.75H21.875ZM17.5066 26.75V28.9375H15.3125V26.75H17.5066Z" fill="black"/>
</g>
</svg>
