<svg width="35" height="35" viewBox="0 0 35 35" fill="none" xmlns="http://www.w3.org/2000/svg">
<g id="fluent:beach-16-regular">
<path id="Vector" d="M26.0619 3.40375C23.9675 2.20045 21.4821 1.87473 19.1484 2.4977C16.8147 3.12068 14.8223 4.64175 13.6062 6.72875L13.2737 7.30406C13.2016 7.42854 13.1547 7.56604 13.1358 7.70867C13.1168 7.8513 13.1262 7.99626 13.1634 8.13525C13.2006 8.27424 13.2649 8.40453 13.3525 8.51866C13.4401 8.63278 13.5494 8.72849 13.6741 8.80031L19.4666 12.1297L15.9031 18.3575C12.7312 18.7709 10.0406 20.8294 8.33437 23.5944C9.14686 23.4115 9.99847 23.5445 10.7166 23.9663C12.3069 21.8356 14.6103 20.4706 17.08 20.4706C19.5497 20.4706 21.8531 21.8356 23.4412 23.9684C24.1599 23.5461 25.0124 23.4131 25.8256 23.5966C24.1478 20.8731 21.5163 18.8388 18.41 18.3794L21.3609 13.2169L27.5734 16.7869C27.824 16.9307 28.1213 16.9696 28.4004 16.895C28.6795 16.8204 28.9177 16.6384 29.0631 16.3888L29.3978 15.8113C29.9972 14.7784 30.3864 13.6371 30.5429 12.4532C30.6995 11.2694 30.6204 10.0662 30.3102 8.913C29.9999 7.75981 29.4646 6.67936 28.7352 5.73386C28.0057 4.78835 27.0986 3.99646 26.0619 3.40375ZM15.7281 7.45937C16.5268 6.26763 17.6743 5.35194 19.0136 4.83776C20.3529 4.32359 21.8184 4.23606 23.2094 4.58719C22.4532 4.97136 21.7303 5.41768 21.0481 5.92156C19.9478 6.75281 19.0969 7.69344 18.2153 8.89L15.7281 7.45937ZM22.365 7.66719C22.9731 7.20781 23.6841 6.78344 24.6006 6.33719C24.7188 7.21219 24.745 7.9625 24.6531 8.69531C24.5306 9.65781 24.1981 10.6619 23.4981 11.9241L20.125 9.98375C20.8687 8.99937 21.5403 8.28844 22.365 7.665M27.7091 14.3413L25.3947 13.0112C26.2041 11.5609 26.6569 10.2834 26.8231 8.96656C26.9106 8.27531 26.9128 7.59062 26.8603 6.88844C27.7091 7.9147 28.2412 9.16556 28.3918 10.4888C28.5425 11.812 28.3053 13.1504 27.7091 14.3413ZM10.0953 26.4534C10.0206 26.2284 9.87468 26.0337 9.67966 25.8987C9.48463 25.7638 9.25103 25.6959 9.01405 25.7053C8.77708 25.7147 8.54957 25.8008 8.36582 25.9508C8.18208 26.1007 8.05204 26.3063 7.99531 26.5366C7.71969 27.6566 7.21 28.2428 6.65219 28.5819C6.055 28.9428 5.27844 29.0916 4.375 29.0916C4.08492 29.0916 3.80672 29.2068 3.6016 29.4119C3.39648 29.617 3.28125 29.8952 3.28125 30.1853C3.28125 30.4754 3.39648 30.7536 3.6016 30.9587C3.80672 31.1638 4.08492 31.2791 4.375 31.2791C5.4775 31.2791 6.70688 31.1041 7.78313 30.4544C8.31687 30.1306 8.78719 29.7084 9.17437 29.1747C11.2766 31.5372 15.0369 31.5241 17.0822 29.1331C19.1625 31.5678 23.0234 31.5394 25.1016 29.0456C25.6714 29.7383 26.3864 30.2973 27.1961 30.6832C28.0057 31.0692 28.8903 31.2726 29.7872 31.2791C30.0773 31.2791 30.3555 31.1638 30.5606 30.9587C30.7657 30.7536 30.8809 30.4754 30.8809 30.1853C30.8809 29.8952 30.7657 29.617 30.5606 29.4119C30.3555 29.2068 30.0773 29.0916 29.7872 29.0916C28.2209 29.0916 26.6613 28.0678 26.1472 26.4644C26.0764 26.2452 25.9383 26.0539 25.7524 25.9178C25.5665 25.7818 25.3424 25.7079 25.1121 25.7066C24.8817 25.7054 24.6569 25.777 24.4696 25.9111C24.2823 26.0452 24.1421 26.235 24.0691 26.4534C23.0519 29.5181 19.1034 29.4656 18.1147 26.5847C18.0403 26.3698 17.9008 26.1834 17.7155 26.0515C17.5303 25.9196 17.3085 25.8487 17.0811 25.8487C16.8537 25.8487 16.6319 25.9196 16.4467 26.0515C16.2614 26.1834 16.1219 26.3698 16.0475 26.5847C15.0566 29.4656 11.1103 29.5181 10.0953 26.4534Z" fill="black"/>
</g>
</svg>
