<svg width="35" height="35" viewBox="0 0 35 35" fill="none" xmlns="http://www.w3.org/2000/svg">
<g id="fluent:backpack-16-regular">
<path id="Vector" d="M15.3125 13.125C14.1522 13.125 13.0394 13.5859 12.2189 14.4064C11.3984 15.2269 10.9375 16.3397 10.9375 17.5C10.9375 18.0802 11.168 18.6366 11.5782 19.0468C11.9884 19.457 12.5448 19.6875 13.125 19.6875H21.875C22.4552 19.6875 23.0116 19.457 23.4218 19.0468C23.832 18.6366 24.0625 18.0802 24.0625 17.5C24.0625 16.3397 23.6016 15.2269 22.7811 14.4064C21.9606 13.5859 20.8478 13.125 19.6875 13.125H15.3125ZM13.125 17.5C13.125 16.9198 13.3555 16.3634 13.7657 15.9532C14.1759 15.543 14.7323 15.3125 15.3125 15.3125H19.6875C20.2677 15.3125 20.8241 15.543 21.2343 15.9532C21.6445 16.3634 21.875 16.9198 21.875 17.5H13.125ZM17.5 2.1875C16.3397 2.1875 15.2269 2.64844 14.4064 3.46891C13.5859 4.28938 13.125 5.40218 13.125 6.5625V7.4725C11.174 8.32399 9.51387 9.72629 8.34818 11.5075C7.18248 13.2887 6.56189 15.3713 6.5625 17.5V27.3438C6.5625 28.7942 7.13867 30.1852 8.16426 31.2107C9.18985 32.2363 10.5808 32.8125 12.0313 32.8125H22.9688C24.4192 32.8125 25.8102 32.2363 26.8357 31.2107C27.8613 30.1852 28.4375 28.7942 28.4375 27.3438V17.5C28.4381 15.3713 27.8175 13.2887 26.6518 11.5075C25.4861 9.72629 23.826 8.32399 21.875 7.4725V6.5625C21.875 5.40218 21.4141 4.28938 20.5936 3.46891C19.7731 2.64844 18.6603 2.1875 17.5 2.1875ZM26.25 21.875H8.75V17.5C8.75 15.1794 9.67187 12.9538 11.3128 11.3128C12.9538 9.67187 15.1794 8.75 17.5 8.75C19.8206 8.75 22.0462 9.67187 23.6872 11.3128C25.3281 12.9538 26.25 15.1794 26.25 17.5V21.875ZM13.125 27.3438C13.125 27.6338 13.2402 27.912 13.4454 28.1171C13.6505 28.3223 13.9287 28.4375 14.2188 28.4375C14.5088 28.4375 14.787 28.3223 14.9921 28.1171C15.1973 27.912 15.3125 27.6338 15.3125 27.3438V24.0625H26.25V27.3438C26.25 28.214 25.9043 29.0486 25.2889 29.6639C24.6736 30.2793 23.839 30.625 22.9688 30.625H12.0313C11.161 30.625 10.3264 30.2793 9.71106 29.6639C9.0957 29.0486 8.75 28.214 8.75 27.3438V24.0625H13.125V27.3438ZM17.5 6.5625C16.7504 6.5625 16.0212 6.63542 15.3125 6.78125V6.5625C15.3125 5.98234 15.543 5.42594 15.9532 5.0157C16.3634 4.60547 16.9198 4.375 17.5 4.375C18.0802 4.375 18.6366 4.60547 19.0468 5.0157C19.457 5.42594 19.6875 5.98234 19.6875 6.5625V6.78125C18.9675 6.63505 18.2347 6.56177 17.5 6.5625Z" fill="black"/>
</g>
</svg>
