<svg width="20" height="20" viewBox="0 0 20 20" fill="none" xmlns="http://www.w3.org/2000/svg">
<g id="Kitchen" clip-path="url(#clip0_53_21984)">
<path id="Vector" d="M6.66683 4.16667H8.3335V6.66667H6.66683V4.16667ZM6.66683 10H8.3335V14.1667H6.66683V10ZM15.0002 1.67501L5.00016 1.66667C4.55814 1.66667 4.13421 1.84227 3.82165 2.15483C3.50909 2.46739 3.3335 2.89131 3.3335 3.33334V16.6667C3.3335 17.5833 4.0835 18.3333 5.00016 18.3333H15.0002C15.9168 18.3333 16.6668 17.5833 16.6668 16.6667V3.33334C16.6668 2.40834 15.9168 1.67501 15.0002 1.67501ZM15.0002 16.6667H5.00016V9.15H15.0002V16.6667ZM15.0002 7.5H5.00016V3.33334H15.0002V7.5Z" fill="#222222"/>
</g>
<defs>
<clipPath id="clip0_53_21984">
<rect width="20" height="20" fill="white"/>
</clipPath>
</defs>
</svg>
