<svg width="20" height="20" viewBox="0 0 20 20" fill="none" xmlns="http://www.w3.org/2000/svg">
<g id="Local laundry service" clip-path="url(#clip0_53_21958)">
<path id="Vector" d="M15.0002 1.67499L5.00016 1.66666C4.07516 1.66666 3.3335 2.40832 3.3335 3.33332V16.6667C3.3335 17.5917 4.07516 18.3333 5.00016 18.3333H15.0002C15.9252 18.3333 16.6668 17.5917 16.6668 16.6667V3.33332C16.6668 2.40832 15.9252 1.67499 15.0002 1.67499ZM15.0002 16.6667H5.00016L4.99183 3.33332H15.0002V16.6667Z" fill="#222222"/>
<path id="Vector_2" d="M6.66683 5.83332C7.12707 5.83332 7.50016 5.46023 7.50016 4.99999C7.50016 4.53975 7.12707 4.16666 6.66683 4.16666C6.20659 4.16666 5.8335 4.53975 5.8335 4.99999C5.8335 5.46023 6.20659 5.83332 6.66683 5.83332Z" fill="#222222"/>
<path id="Vector_3" d="M9.16683 5.83332C9.62707 5.83332 10.0002 5.46023 10.0002 4.99999C10.0002 4.53975 9.62707 4.16666 9.16683 4.16666C8.70659 4.16666 8.3335 4.53975 8.3335 4.99999C8.3335 5.46023 8.70659 5.83332 9.16683 5.83332Z" fill="#222222"/>
<path id="Vector_4" d="M10.0002 15.8333C12.3002 15.8333 14.1668 13.9667 14.1668 11.6667C14.1668 9.36667 12.3002 7.5 10.0002 7.5C7.70016 7.5 5.8335 9.36667 5.8335 11.6667C5.8335 13.9667 7.70016 15.8333 10.0002 15.8333ZM11.9668 9.7C13.0502 10.7833 13.0502 12.55 11.9668 13.6333C10.8835 14.7167 9.11683 14.7167 8.0335 13.6333L11.9668 9.7Z" fill="#222222"/>
</g>
<defs>
<clipPath id="clip0_53_21958">
<rect width="20" height="20" fill="white"/>
</clipPath>
</defs>
</svg>
