<svg width="283" height="74" viewBox="0 0 283 74" fill="none" xmlns="http://www.w3.org/2000/svg">
<path d="M0 31.7731H11.3074L13.1742 47.4541L19.6279 31.7731H29.8152L31.6287 47.4541L38.0824 31.7731H43.7361L33.1221 54.7079H21.9747L20.0013 43.0805L14.6143 54.7079H3.46689L0 31.7731Z" fill="#0F672A"/>
<path d="M46.3525 33.7465C48.1659 32.8576 50.015 32.2176 51.8995 31.8264C53.8196 31.3997 55.9531 31.1864 58.2999 31.1864C60.5756 31.1864 62.4602 31.3642 63.9536 31.7197C65.447 32.0753 66.6382 32.5909 67.5272 33.2665C68.4161 33.9421 69.0384 34.7422 69.394 35.6667C69.7495 36.5912 69.9273 37.6401 69.9273 38.8135C69.9273 39.4891 69.874 40.2181 69.7673 41.0003C69.6962 41.7826 69.6073 42.4404 69.5006 42.9738L66.9938 54.7079H58.4066L57.4465 51.2943H57.1265C55.9887 52.5388 54.6552 53.4989 53.1263 54.1745C51.6328 54.8145 50.1394 55.1346 48.646 55.1346C47.7926 55.1346 46.957 55.0101 46.1392 54.7612C45.3213 54.5123 44.5924 54.1389 43.9524 53.6411C43.3123 53.1078 42.7967 52.4499 42.4056 51.6677C42.0145 50.8498 41.8189 49.872 41.8189 48.7342C41.8189 46.8851 42.3167 45.4273 43.3123 44.3605C44.3435 43.2583 45.6769 42.4404 47.3126 41.9071C48.9838 41.3381 50.8506 40.9826 52.9129 40.8403C55.0108 40.6981 57.1087 40.627 59.2066 40.627C59.2778 40.2714 59.3667 39.7736 59.4733 39.1335C59.58 38.4579 59.6333 37.8712 59.6333 37.3734C59.6333 36.7334 59.4556 36.1467 59.1 35.6133C58.78 35.0444 58.0866 34.7599 57.0198 34.7599C55.7753 34.7599 54.8508 35.1333 54.2463 35.88C53.6774 36.5912 53.304 37.4623 53.1263 38.4935H45.3391L46.3525 33.7465ZM58.6199 43.1338H57.6599C56.6287 43.1338 55.7398 43.276 54.993 43.5605C54.2819 43.8094 53.6952 44.1472 53.2329 44.5739C52.8062 45.0006 52.4862 45.4806 52.2729 46.014C52.0595 46.5473 51.9529 47.0807 51.9529 47.6141C51.9529 48.4675 52.1662 49.1075 52.5929 49.5342C53.0551 49.9609 53.5885 50.1742 54.193 50.1742C54.9397 50.1742 55.6686 49.9076 56.3798 49.3742C57.1265 48.8408 57.5888 48.1297 57.7666 47.2407L58.6199 43.1338Z" fill="#0F672A"/>
<path d="M86.2354 35.1866C86.9821 34.4755 87.8177 33.8177 88.7423 33.2132C89.5601 32.7154 90.5201 32.2531 91.6224 31.8264C92.7247 31.3997 93.9515 31.1864 95.3027 31.1864C97.1517 31.1864 98.6807 31.6664 99.8896 32.6265C101.099 33.551 101.703 34.8311 101.703 36.4667C101.703 36.929 101.65 37.4979 101.543 38.1735C101.436 38.8135 101.312 39.4891 101.17 40.2003C101.027 40.9114 100.867 41.6404 100.69 42.3871C100.547 43.0982 100.423 43.7383 100.316 44.3072L98.0762 54.7079H87.2488L90.1824 40.787C90.2535 40.3247 90.3424 39.8625 90.449 39.4002C90.5557 38.9024 90.609 38.4579 90.609 38.0668C90.609 37.5334 90.4668 37.1068 90.1824 36.7867C89.9334 36.4312 89.5423 36.2534 89.0089 36.2534C88.3689 36.2534 87.7466 36.4845 87.1422 36.9467C86.5732 37.409 86.1288 37.8001 85.8087 38.1201L82.2885 54.7079H71.4078L76.2615 31.7731H84.9554L85.9154 35.1866H86.2354Z" fill="#0F672A"/>
<path d="M125.381 18.8656H136.315L128.688 54.7079H120.048L119.087 51.2943H118.714C118.501 51.6143 118.163 52.0055 117.701 52.4677C117.274 52.8944 116.723 53.3211 116.047 53.7478C115.372 54.1389 114.572 54.459 113.647 54.7079C112.723 54.9923 111.656 55.1346 110.447 55.1346C109.202 55.1346 108.136 54.9568 107.247 54.6012C106.393 54.2101 105.682 53.6945 105.113 53.0544C104.58 52.4144 104.189 51.6499 103.94 50.7609C103.691 49.8364 103.567 48.8408 103.567 47.7741C103.567 47.3118 103.602 46.5829 103.673 45.5873C103.744 44.5561 103.904 43.436 104.153 42.2271C104.438 40.9826 104.829 39.7203 105.327 38.4402C105.86 37.1245 106.553 35.9333 107.407 34.8666C108.296 33.7999 109.38 32.9287 110.66 32.2531C111.94 31.542 113.487 31.1864 115.301 31.1864C115.87 31.1864 116.474 31.2397 117.114 31.3464C117.754 31.4531 118.359 31.6486 118.927 31.9331C119.532 32.2176 120.065 32.6265 120.528 33.1598C120.99 33.6932 121.328 34.3866 121.541 35.24H121.914L125.381 18.8656ZM118.874 36.4134C118.021 36.4134 117.31 36.8934 116.741 37.8535C116.172 38.778 115.71 39.8625 115.354 41.107C114.998 42.3515 114.732 43.5961 114.554 44.8406C114.412 46.0851 114.341 47.0096 114.341 47.6141C114.341 48.3252 114.447 48.9297 114.661 49.4275C114.874 49.8898 115.283 50.1209 115.887 50.1209C116.243 50.1209 116.581 50.0498 116.901 49.9076C117.256 49.7298 117.576 49.5342 117.861 49.3209C118.181 49.072 118.447 48.823 118.661 48.5741C118.874 48.3252 119.052 48.1119 119.194 47.9341L121.274 38.2268C121.025 37.8357 120.688 37.4446 120.261 37.0534C119.87 36.6267 119.408 36.4134 118.874 36.4134Z" fill="#0F672A"/>
<path d="M145.604 43.9872C145.462 44.7695 145.355 45.5162 145.284 46.2273C145.248 46.9385 145.23 47.5785 145.23 48.1474C145.23 48.4675 145.248 48.823 145.284 49.2142C145.319 49.6053 145.39 49.9787 145.497 50.3343C145.639 50.6543 145.817 50.9387 146.03 51.1876C146.279 51.401 146.617 51.5077 147.044 51.5077C147.364 51.5077 147.719 51.401 148.111 51.1876C148.537 50.9743 148.946 50.6721 149.337 50.2809C149.764 49.8898 150.155 49.4098 150.511 48.8408C150.902 48.2719 151.204 47.6319 151.417 46.9207H160.165L158.778 52.6277C158.067 53.09 157.249 53.4811 156.324 53.8011C155.4 54.1212 154.422 54.3878 153.391 54.6012C152.36 54.779 151.311 54.9034 150.244 54.9745C149.177 55.0812 148.164 55.1346 147.204 55.1346C145.426 55.1346 143.773 54.9745 142.244 54.6545C140.715 54.3345 139.381 53.7834 138.243 53.0011C137.105 52.2188 136.199 51.1876 135.523 49.9076C134.883 48.5919 134.563 46.974 134.563 45.0539C134.563 43.3116 134.83 41.6048 135.363 39.9336C135.932 38.2624 136.857 36.7867 138.137 35.5067C139.452 34.191 141.195 33.1421 143.364 32.3598C145.568 31.5775 148.306 31.1864 151.577 31.1864C155.133 31.1864 157.8 31.7375 159.578 32.8398C161.391 33.9421 162.298 35.6667 162.298 38.0135C162.298 38.9735 162.156 40.0225 161.871 41.1603C161.587 42.2626 161.16 43.2049 160.591 43.9872H145.604ZM152.698 37.6401C152.698 36.5378 152.52 35.7911 152.164 35.4C151.809 35.0088 151.382 34.8133 150.884 34.8133C150.315 34.8133 149.782 35.0088 149.284 35.4C148.822 35.7556 148.395 36.2534 148.004 36.8934C147.613 37.4979 147.257 38.209 146.937 39.0269C146.617 39.8091 146.35 40.6448 146.137 41.5337H152.217C152.289 41.107 152.36 40.6625 152.431 40.2003C152.502 39.8091 152.555 39.3825 152.591 38.9202C152.662 38.4579 152.698 38.0313 152.698 37.6401Z" fill="#0F672A"/>
<path d="M167.465 31.7731H176.159L176.959 35.7733H177.332C178.15 34.4933 179.199 33.4087 180.479 32.5198C181.759 31.6309 183.448 31.1864 185.546 31.1864C185.689 31.1864 185.902 31.2042 186.186 31.2397C186.506 31.2397 186.844 31.2931 187.2 31.3997C187.591 31.4708 187.982 31.5953 188.373 31.7731C188.8 31.9153 189.209 32.1287 189.6 32.4131L187.253 43.4005H181.439C181.368 41.1959 181.173 39.6669 180.853 38.8135C180.533 37.9246 180.017 37.4801 179.306 37.4801C178.95 37.4801 178.559 37.569 178.132 37.7468C177.741 37.889 177.332 38.2268 176.906 38.7602L173.492 54.7079H162.611L167.465 31.7731Z" fill="#0F672A"/>
<path d="M199.275 54.7079H188.394L195.968 18.8656H206.902L199.275 54.7079Z" fill="#0F672A"/>
<path d="M224.448 31.7731H235.329L230.422 54.7079H221.781L220.821 51.2943H220.501C219.577 52.3966 218.315 53.3211 216.714 54.0678C215.15 54.779 213.568 55.1346 211.968 55.1346C209.834 55.1346 208.163 54.6012 206.954 53.5345C205.745 52.4322 205.14 51.0099 205.14 49.2675C205.14 48.3786 205.283 47.2763 205.567 45.9606C205.887 44.6094 206.172 43.3471 206.42 42.1737L208.661 31.7731H219.488L216.821 44.2539C216.75 44.5383 216.679 44.8761 216.608 45.2673C216.537 45.6584 216.466 46.0495 216.394 46.4407C216.323 46.7963 216.252 47.1518 216.181 47.5074C216.146 47.8274 216.128 48.0941 216.128 48.3075C216.128 48.8408 216.234 49.3031 216.448 49.6942C216.697 50.0498 217.123 50.2276 217.728 50.2276C218.368 50.2276 218.972 50.0142 219.541 49.5875C220.11 49.1608 220.555 48.7519 220.875 48.3608L224.448 31.7731Z" fill="#0F672A"/>
<path d="M252.128 38.4935C252.164 38.3157 252.199 38.1379 252.235 37.9601C252.27 37.7824 252.288 37.5868 252.288 37.3734C252.288 36.7334 252.164 36.1467 251.915 35.6133C251.701 35.0444 251.257 34.7599 250.581 34.7599C249.977 34.7599 249.372 35.0266 248.768 35.56C248.163 36.0578 247.861 36.7334 247.861 37.5868C247.861 38.1557 248.003 38.618 248.288 38.9735C248.608 39.2936 249.017 39.5602 249.514 39.7736C250.012 39.9869 250.563 40.1647 251.168 40.307C251.808 40.4492 252.43 40.5914 253.035 40.7336C253.888 40.947 254.688 41.2137 255.435 41.5337C256.217 41.8182 256.91 42.2093 257.515 42.7071C258.119 43.2049 258.599 43.8272 258.955 44.5739C259.311 45.285 259.488 46.174 259.488 47.2407C259.488 48.7342 259.133 49.9965 258.422 51.0276C257.746 52.0232 256.786 52.8411 255.542 53.4811C254.333 54.0856 252.892 54.5123 251.221 54.7612C249.586 55.0101 247.825 55.1346 245.941 55.1346C243.061 55.1346 240.678 54.9212 238.794 54.4945C236.909 54.0678 235.594 53.6589 234.847 53.2678L235.967 47.9341H243.167C243.132 48.1119 243.114 48.2897 243.114 48.4675C243.114 48.6097 243.114 48.7697 243.114 48.9475C243.114 49.7653 243.292 50.4231 243.647 50.921C244.039 51.3832 244.696 51.6143 245.621 51.6143C246.652 51.6143 247.381 51.3299 247.808 50.7609C248.27 50.1565 248.501 49.6053 248.501 49.1075C248.501 48.6097 248.305 48.183 247.914 47.8274C247.559 47.4363 247.097 47.1163 246.528 46.8674C245.959 46.5829 245.319 46.3518 244.607 46.174C243.932 45.9606 243.274 45.7651 242.634 45.5873C242.172 45.4806 241.638 45.3028 241.034 45.0539C240.465 44.805 239.914 44.4494 239.38 43.9872C238.847 43.5249 238.403 42.9382 238.047 42.2271C237.691 41.4804 237.514 40.5559 237.514 39.4536C237.514 37.889 237.887 36.5912 238.634 35.56C239.416 34.4933 240.412 33.6399 241.621 32.9998C242.865 32.3598 244.252 31.8975 245.781 31.6131C247.345 31.3286 248.91 31.1864 250.475 31.1864C252.43 31.1864 254.279 31.3642 256.022 31.7197C257.764 32.0753 259.186 32.5376 260.288 33.1065L259.062 38.4935H252.128Z" fill="#0F672A"/>
<path d="M263.782 31.7731C265.097 31.4886 266.253 31.1686 267.249 30.813C268.244 30.4574 269.151 30.013 269.969 29.4796C270.822 28.9462 271.622 28.2884 272.369 27.5061C273.151 26.7239 273.987 25.7638 274.876 24.626H280.369L278.823 31.7731H282.983L282.289 35.3466H278.076L275.889 45.7473C275.711 46.5651 275.569 47.2941 275.462 47.9341C275.356 48.5741 275.302 49.072 275.302 49.4275C275.302 50.1387 275.551 50.5832 276.049 50.7609C276.582 50.9387 277.56 51.0276 278.983 51.0276L278.183 54.7079C277.934 54.779 277.542 54.8323 277.009 54.8679C276.511 54.9034 275.942 54.939 275.302 54.9745C274.698 55.0457 274.058 55.0812 273.382 55.0812C272.742 55.1168 272.173 55.1346 271.675 55.1346C270.786 55.1346 269.915 55.0634 269.062 54.9212C268.209 54.8145 267.444 54.5834 266.768 54.2278C266.093 53.8367 265.542 53.2855 265.115 52.5744C264.724 51.8632 264.528 50.9032 264.528 49.6942C264.528 49.2675 264.546 48.7342 264.582 48.0941C264.653 47.4541 264.777 46.7429 264.955 45.9606L267.195 35.3466H263.035L263.782 31.7731Z" fill="#0F672A"/>
</svg>
