<svg width="62" height="62" viewBox="0 0 62 62" fill="none" xmlns="http://www.w3.org/2000/svg">
<path d="M45.3375 23.7021L54.4438 14.5313C54.9605 14.0146 55.574 13.7563 56.2844 13.7563C56.9948 13.7563 57.6084 14.0146 58.125 14.5313C58.6417 15.048 58.9 15.6615 58.9 16.3719C58.9 17.0823 58.6417 17.6959 58.125 18.2125L47.1459 29.1917C46.6292 29.7084 46.0264 29.9667 45.3375 29.9667C44.6487 29.9667 44.0459 29.7084 43.5292 29.1917L38.0396 23.7021C37.523 23.1855 37.2646 22.5719 37.2646 21.8615C37.2646 21.1511 37.523 20.5375 38.0396 20.0209C38.5563 19.5042 39.1591 19.2459 39.848 19.2459C40.5368 19.2459 41.1396 19.5042 41.6563 20.0209L45.3375 23.7021ZM23.25 31C20.4084 31 17.9757 29.9882 15.9521 27.9646C13.9285 25.941 12.9167 23.5084 12.9167 20.6667C12.9167 17.825 13.9285 15.3924 15.9521 13.3688C17.9757 11.3452 20.4084 10.3334 23.25 10.3334C26.0917 10.3334 28.5243 11.3452 30.548 13.3688C32.5716 15.3924 33.5834 17.825 33.5834 20.6667C33.5834 23.5084 32.5716 25.941 30.548 27.9646C28.5243 29.9882 26.0917 31 23.25 31ZM2.58337 46.5V44.4334C2.58337 42.9695 2.96011 41.624 3.71358 40.3969C4.46705 39.1698 5.4681 38.2334 6.71671 37.5875C9.38615 36.2528 12.0987 35.2518 14.8542 34.5844C17.6098 33.9171 20.4084 33.5834 23.25 33.5834C26.0917 33.5834 28.8903 33.9171 31.6459 34.5844C34.4014 35.2518 37.1139 36.2528 39.7834 37.5875C41.032 38.2334 42.033 39.1698 42.7865 40.3969C43.54 41.624 43.9167 42.9695 43.9167 44.4334V46.5C43.9167 47.9209 43.4108 49.1372 42.399 50.149C41.3872 51.1608 40.1709 51.6667 38.75 51.6667H7.75004C6.32921 51.6667 5.11289 51.1608 4.10108 50.149C3.08928 49.1372 2.58337 47.9209 2.58337 46.5Z" fill="#0F672A"/>
</svg>
